<mxfile host="app.diagrams.net" modified="2023-05-28T09:21:39.572Z" agent="Mozilla/5.0 (Macintosh; Intel Mac OS X 10_15_7) AppleWebKit/537.36 (KHTML, like Gecko) Chrome/113.0.0.0 Safari/537.36" etag="MEUWxDtzd1R1GSmPD52a" version="21.3.4" type="github">
  <diagram name="第 1 页" id="aTCZfh4_29IBvqdXMpXu">
    <mxGraphModel dx="1434" dy="796" grid="1" gridSize="10" guides="1" tooltips="1" connect="1" arrows="1" fold="1" page="1" pageScale="1" pageWidth="827" pageHeight="1169" math="0" shadow="0">
      <root>
        <mxCell id="0" />
        <mxCell id="1" parent="0" />
        <mxCell id="UKXSaaFMPdLPz1h9dH9i-5" value="" style="edgeStyle=orthogonalEdgeStyle;rounded=0;orthogonalLoop=1;jettySize=auto;html=1;fillColor=#dae8fc;strokeColor=#6c8ebf;fontStyle=1" edge="1" parent="1" source="UKXSaaFMPdLPz1h9dH9i-1" target="UKXSaaFMPdLPz1h9dH9i-2">
          <mxGeometry relative="1" as="geometry" />
        </mxCell>
        <mxCell id="UKXSaaFMPdLPz1h9dH9i-1" value="Pre-trained Model" style="rounded=1;whiteSpace=wrap;html=1;fillColor=#dae8fc;strokeColor=#6c8ebf;fontStyle=1" vertex="1" parent="1">
          <mxGeometry x="120" y="180" width="120" height="60" as="geometry" />
        </mxCell>
        <mxCell id="UKXSaaFMPdLPz1h9dH9i-6" value="" style="edgeStyle=orthogonalEdgeStyle;rounded=0;orthogonalLoop=1;jettySize=auto;html=1;fillColor=#dae8fc;strokeColor=#6c8ebf;fontStyle=1" edge="1" parent="1" source="UKXSaaFMPdLPz1h9dH9i-2" target="UKXSaaFMPdLPz1h9dH9i-3">
          <mxGeometry relative="1" as="geometry" />
        </mxCell>
        <mxCell id="UKXSaaFMPdLPz1h9dH9i-2" value="Collect Statistics" style="rounded=1;whiteSpace=wrap;html=1;fillColor=#dae8fc;strokeColor=#6c8ebf;fontStyle=1" vertex="1" parent="1">
          <mxGeometry x="120" y="280" width="120" height="60" as="geometry" />
        </mxCell>
        <mxCell id="UKXSaaFMPdLPz1h9dH9i-7" value="" style="edgeStyle=orthogonalEdgeStyle;rounded=0;orthogonalLoop=1;jettySize=auto;html=1;fillColor=#dae8fc;strokeColor=#6c8ebf;fontStyle=1" edge="1" parent="1" source="UKXSaaFMPdLPz1h9dH9i-3" target="UKXSaaFMPdLPz1h9dH9i-4">
          <mxGeometry relative="1" as="geometry" />
        </mxCell>
        <mxCell id="UKXSaaFMPdLPz1h9dH9i-3" value="Compute Scales" style="rounded=1;whiteSpace=wrap;html=1;fillColor=#dae8fc;strokeColor=#6c8ebf;fontStyle=1" vertex="1" parent="1">
          <mxGeometry x="120" y="380" width="120" height="60" as="geometry" />
        </mxCell>
        <mxCell id="UKXSaaFMPdLPz1h9dH9i-4" value="Quantize Model for Inference" style="rounded=1;whiteSpace=wrap;html=1;fillColor=#dae8fc;strokeColor=#6c8ebf;fontStyle=1" vertex="1" parent="1">
          <mxGeometry x="120" y="480" width="120" height="60" as="geometry" />
        </mxCell>
        <mxCell id="UKXSaaFMPdLPz1h9dH9i-8" value="" style="edgeStyle=orthogonalEdgeStyle;rounded=0;orthogonalLoop=1;jettySize=auto;html=1;fillColor=#dae8fc;strokeColor=#6c8ebf;fontStyle=1" edge="1" parent="1" source="UKXSaaFMPdLPz1h9dH9i-9" target="UKXSaaFMPdLPz1h9dH9i-11">
          <mxGeometry relative="1" as="geometry" />
        </mxCell>
        <mxCell id="UKXSaaFMPdLPz1h9dH9i-9" value="Pre-trained Model" style="rounded=1;whiteSpace=wrap;html=1;fillColor=#dae8fc;strokeColor=#6c8ebf;fontStyle=1" vertex="1" parent="1">
          <mxGeometry x="320" y="180" width="120" height="60" as="geometry" />
        </mxCell>
        <mxCell id="UKXSaaFMPdLPz1h9dH9i-10" value="" style="edgeStyle=orthogonalEdgeStyle;rounded=0;orthogonalLoop=1;jettySize=auto;html=1;fillColor=#dae8fc;strokeColor=#6c8ebf;fontStyle=1" edge="1" parent="1" source="UKXSaaFMPdLPz1h9dH9i-11" target="UKXSaaFMPdLPz1h9dH9i-13">
          <mxGeometry relative="1" as="geometry" />
        </mxCell>
        <mxCell id="UKXSaaFMPdLPz1h9dH9i-11" value="Add Fake Quantization Module&amp;nbsp;" style="rounded=1;whiteSpace=wrap;html=1;fillColor=#dae8fc;strokeColor=#6c8ebf;fontStyle=1" vertex="1" parent="1">
          <mxGeometry x="320" y="280" width="120" height="60" as="geometry" />
        </mxCell>
        <mxCell id="UKXSaaFMPdLPz1h9dH9i-12" value="" style="edgeStyle=orthogonalEdgeStyle;rounded=0;orthogonalLoop=1;jettySize=auto;html=1;fillColor=#dae8fc;strokeColor=#6c8ebf;fontStyle=1" edge="1" parent="1" source="UKXSaaFMPdLPz1h9dH9i-13" target="UKXSaaFMPdLPz1h9dH9i-14">
          <mxGeometry relative="1" as="geometry" />
        </mxCell>
        <mxCell id="UKXSaaFMPdLPz1h9dH9i-13" value="Train the model" style="rounded=1;whiteSpace=wrap;html=1;fillColor=#dae8fc;strokeColor=#6c8ebf;fontStyle=1" vertex="1" parent="1">
          <mxGeometry x="320" y="380" width="120" height="60" as="geometry" />
        </mxCell>
        <mxCell id="UKXSaaFMPdLPz1h9dH9i-14" value="Quantize Model for Inference" style="rounded=1;whiteSpace=wrap;html=1;fillColor=#dae8fc;strokeColor=#6c8ebf;fontStyle=1" vertex="1" parent="1">
          <mxGeometry x="320" y="480" width="120" height="60" as="geometry" />
        </mxCell>
        <mxCell id="UKXSaaFMPdLPz1h9dH9i-15" value="Quantization-Aware Training (QAT)" style="text;html=1;strokeColor=none;fillColor=none;align=center;verticalAlign=middle;whiteSpace=wrap;rounded=0;" vertex="1" parent="1">
          <mxGeometry x="330" y="560" width="110" height="30" as="geometry" />
        </mxCell>
        <mxCell id="UKXSaaFMPdLPz1h9dH9i-16" value="Post-Training Quantization (PTQ)" style="text;html=1;strokeColor=none;fillColor=none;align=center;verticalAlign=middle;whiteSpace=wrap;rounded=0;" vertex="1" parent="1">
          <mxGeometry x="130" y="560" width="110" height="30" as="geometry" />
        </mxCell>
      </root>
    </mxGraphModel>
  </diagram>
</mxfile>
